<svg version="1.1" id="Layer_1" xmlns="http://www.w3.org/2000/svg" xmlns:xlink="http://www.w3.org/1999/xlink" x="0px" y="0px"
	 width="100%" viewBox="0 0 1024 1024" enable-background="new 0 0 1024 1024" xml:space="preserve">
<path fill="#000000" opacity="1.000000" stroke="none" 
	d="
M719.392700,502.208008 
	C715.347839,548.500671 698.697876,589.266113 669.058044,624.364319 
	C636.319641,663.131714 594.666260,687.310120 544.463806,695.002747 
	C441.119781,710.838318 344.752258,644.973145 316.644745,546.871582 
	C299.863647,488.301758 303.986725,430.943817 332.014221,376.597839 
	C360.918823,320.551025 406.407654,283.546906 468.181000,269.652130 
	C534.329895,254.773178 594.125854,270.493195 645.912170,314.251221 
	C684.259583,346.653778 706.592224,388.660156 716.418030,437.630554 
	C720.680969,458.876312 721.264343,480.246979 719.392700,502.208008 
M633.482361,645.967957 
	C638.623596,641.982056 643.488403,637.687683 648.104492,633.099426 
	C681.405029,599.999023 702.199280,560.600098 708.947693,513.876404 
	C712.405457,489.935760 712.648315,466.002533 708.275879,442.335266 
	C698.581238,389.859802 673.651611,346.051331 630.635742,313.746460 
	C586.029358,280.247101 535.874146,266.819397 480.538971,276.366486 
	C433.928406,284.408325 395.202789,307.220795 364.983643,343.385681 
	C334.063904,380.388947 318.310913,423.485779 316.975342,471.861115 
	C316.252716,498.034332 318.411865,523.795349 326.578918,548.750122 
	C343.519501,600.512756 375.981964,639.630432 423.884979,665.512695 
	C464.268311,687.332153 507.365936,692.876831 552.208435,684.142334 
	C582.148499,678.310608 608.878662,665.105469 633.482361,645.967957 
z"/>
<path fill="#000000" opacity="1.000000" stroke="none" 
	d="
M615.733398,354.159210 
	C624.579956,357.127014 633.060059,359.959198 641.432556,362.755432 
	C642.736816,360.968231 641.433777,360.193604 640.784607,359.422424 
	C613.978821,327.577423 580.256287,307.536072 538.982178,301.340057 
	C489.676483,293.938354 446.033051,307.270355 408.002686,339.242096 
	C402.916962,343.517609 398.452667,348.529327 393.657288,353.155243 
	C392.392059,354.375763 390.892578,356.387207 389.097717,354.484863 
	C387.461945,352.751190 389.665771,351.542480 390.690399,350.422211 
	C418.527252,319.987213 452.705505,301.239288 493.799377,296.717224 
	C557.497559,289.707611 609.428284,312.244446 648.130920,362.905670 
	C668.354553,389.378082 682.368408,419.343018 685.864868,453.245239 
	C686.029968,454.845459 686.688110,456.559723 684.649475,457.936066 
	C681.678711,456.972992 682.034058,454.239288 681.718994,451.946106 
	C678.242432,426.644928 669.598328,403.272064 655.626648,381.883911 
	C655.277344,381.349213 654.752502,380.929230 654.278259,380.422333 
	C652.368286,381.412750 653.073669,383.086639 653.053833,384.404572 
	C652.737671,405.393250 652.386414,426.382446 652.291199,447.372620 
	C652.272095,451.591614 651.165039,453.611115 646.645813,453.228516 
	C643.336914,452.948334 639.969238,452.971771 636.656067,453.227325 
	C632.045776,453.582855 631.075806,451.351196 631.138672,447.215179 
	C631.432068,427.903900 631.475769,408.588867 631.639099,389.275421 
	C631.661682,386.602875 631.264160,384.413605 628.253479,383.376312 
	C617.864624,379.796967 607.526306,376.071167 597.153320,372.445099 
	C596.422058,372.189484 595.565735,372.291626 594.558533,372.210632 
	C594.333435,373.539429 594.241882,374.687042 593.937439,375.775085 
	C592.317505,381.564545 586.723511,383.044922 582.382874,378.862640 
	C580.089478,376.652985 566.805603,374.828735 564.490295,376.763855 
	C561.779053,379.029846 563.310913,382.370941 563.242554,385.235962 
	C563.183533,387.711365 565.248535,387.899139 567.153381,388.071075 
	C577.630127,389.016907 588.133972,388.597015 598.626648,388.714752 
	C609.753052,388.839600 616.001648,394.885315 616.100830,406.010193 
	C616.228577,420.340088 616.161987,434.671692 616.186218,449.002563 
	C616.197327,455.576874 616.430847,455.785706 622.785461,456.023254 
	C626.945557,456.178741 631.103638,456.406433 635.259583,456.653015 
	C644.269592,457.187622 649.401428,462.420807 649.321289,471.396484 
	C649.193420,485.718445 649.419983,500.043732 648.414978,514.357727 
	C647.687256,524.721985 644.330322,528.315674 633.803345,528.327759 
	C613.307068,528.351135 592.810669,528.219971 572.314331,528.161499 
	C570.816284,528.157227 569.315369,528.179321 567.820374,528.266541 
	C565.592773,528.396484 565.205872,529.954102 565.211731,531.777405 
	C565.217957,533.692322 565.299683,535.615906 567.849060,535.787292 
	C570.174133,535.943604 572.515747,535.861572 574.838806,536.036072 
	C576.709839,536.176575 578.961182,535.664856 579.927917,538.431763 
	C577.999573,541.067993 575.128296,539.882080 572.672607,540.135071 
	C570.854919,540.322388 569.005310,540.201965 567.188416,540.393616 
	C565.825684,540.537415 565.255676,541.549622 565.248901,542.877502 
	C565.242493,544.131531 565.537354,545.373108 566.926697,545.573303 
	C570.888184,546.144287 574.889465,546.344727 578.841614,545.570251 
	C580.394897,545.265869 580.391846,543.644958 580.855896,542.405090 
	C582.545410,537.890198 587.157349,535.632080 591.215027,537.215454 
	C595.441589,538.864685 597.771545,544.193481 596.115234,548.422607 
	C594.462646,552.642273 589.283081,554.489441 584.760132,552.431213 
	C583.855530,552.019531 583.067322,551.351379 582.161499,550.943298 
	C578.910889,549.478943 576.984192,550.259216 576.990295,554.129822 
	C577.000854,560.795166 576.939270,567.461670 577.049011,574.125366 
	C577.104309,577.484863 576.147339,580.243286 573.710571,582.648621 
	C569.325317,586.977295 565.071411,591.441284 560.835693,595.917908 
	C559.531067,597.296814 557.713013,598.623047 559.246277,601.839172 
	C565.875488,596.908936 572.365295,592.157898 578.754089,587.274658 
	C580.238708,586.139893 579.947693,584.192871 579.738953,582.573486 
	C579.195129,578.355042 580.933716,575.273682 583.892334,572.425659 
	C590.133545,566.417725 596.174927,560.202454 602.315002,554.089111 
	C605.461609,550.956238 608.790527,548.234253 609.319580,543.106934 
	C609.715393,539.270569 613.195007,537.759583 616.939087,538.597168 
	C620.419861,539.375916 622.466919,541.885864 622.094055,545.525085 
	C621.730103,549.077942 619.535095,551.635559 615.797485,551.208374 
	C611.357117,550.700989 608.692810,552.898743 605.953491,555.772156 
	C599.401184,562.645142 592.682068,569.358887 586.052124,576.158203 
	C584.433472,577.818115 582.691406,579.510376 584.377319,582.013611 
	C586.199524,582.476685 587.090698,581.252258 588.084595,580.494141 
	C597.356934,573.421509 606.626770,566.344360 615.815735,559.164062 
	C622.832153,553.681396 628.193176,547.021057 629.635864,537.911316 
	C630.125000,534.822388 631.835632,533.698975 634.786011,533.767822 
	C638.616516,533.857300 642.450256,533.836060 646.282349,533.817200 
	C649.339722,533.802185 650.526794,535.387756 650.081177,538.264465 
	C648.457825,548.743835 645.977234,558.804260 638.158508,566.776001 
	C624.100708,581.108948 608.152344,593.156982 592.232483,605.245239 
	C569.275452,622.677002 545.461304,638.917236 522.023315,655.680786 
	C519.300659,657.628174 517.173889,657.695618 514.364990,655.878357 
	C486.238647,637.682434 458.476929,618.975037 432.183380,598.171143 
	C426.842896,593.945679 418.387329,593.882874 412.947754,597.942810 
	C409.742981,600.334717 406.410675,600.531128 403.440948,597.717590 
	C400.833740,595.247559 401.108978,590.246826 403.680664,587.725891 
	C406.414001,585.046631 410.682495,584.912476 413.500580,587.928101 
	C415.642456,590.220154 417.649994,591.600586 421.254120,590.035034 
	C417.696930,585.770508 413.125549,583.033142 409.200073,579.605164 
	C402.555695,573.802734 395.413605,568.532227 390.180878,561.271729 
	C384.053589,552.769958 380.948547,543.245239 380.787689,532.796936 
	C380.672852,525.340637 380.765381,517.881165 380.765381,510.505280 
	C371.542480,509.156525 367.963409,512.951660 369.854736,521.454956 
	C370.725891,525.371521 369.005310,528.062012 365.426178,529.273804 
	C361.995697,530.435303 359.138916,529.212158 357.580078,525.819275 
	C355.941742,522.253235 356.864990,519.272278 360.219452,517.254517 
	C361.627289,516.407654 363.216766,515.984314 364.206116,514.445679 
	C367.927399,508.658386 372.606293,504.483704 380.349304,506.106689 
	C381.229340,501.321564 380.995850,497.064941 380.634186,492.177216 
	C372.104645,492.177216 363.682190,492.147064 355.260345,492.202789 
	C353.583160,492.213867 352.853485,493.838806 351.708954,494.759583 
	C348.624786,497.241028 344.158478,497.112213 341.694946,494.528778 
	C339.264526,491.980072 339.326508,487.521423 341.827576,484.985474 
	C344.511566,482.264130 348.654907,482.071075 351.643585,485.176392 
	C353.758759,487.374115 355.979218,487.861542 358.754456,487.826355 
	C365.892395,487.735779 373.032257,487.796082 381.125824,487.796082 
	C381.125824,448.285339 381.125824,409.109314 381.125824,369.802612 
	C363.709747,391.921936 354.083099,417.776917 348.064728,445.048492 
	C344.204834,444.435425 344.680664,442.373993 345.028595,440.664612 
	C350.417389,414.190216 360.270660,389.609253 376.999725,368.204529 
	C381.144745,362.901031 386.262482,358.888611 393.707306,357.101074 
	C419.263824,350.964935 444.504456,343.554321 469.567719,335.584198 
	C487.198486,329.977600 502.559692,320.614166 515.985474,307.977753 
	C517.955139,306.123871 519.644836,304.672119 522.182800,307.431580 
	C539.352844,326.099335 561.695496,335.832458 585.121033,343.683838 
	C595.223389,347.069794 605.286255,350.573425 615.733398,354.159210 
M493.673279,544.415283 
	C493.650208,536.585815 493.584717,528.756042 493.628052,520.926941 
	C493.642395,518.331543 493.255432,516.236694 491.034821,514.333435 
	C487.951294,511.690491 487.863281,506.676880 490.311768,504.004700 
	C492.781769,501.309052 497.504547,501.252747 500.249115,503.886261 
	C503.004517,506.530212 503.187256,511.236176 500.008636,514.142334 
	C497.729095,516.226501 497.268188,518.426697 497.287018,521.203613 
	C497.356995,531.505005 497.264709,541.807434 497.338928,552.108765 
	C497.357910,554.737122 496.756805,556.883911 494.917053,558.905334 
	C481.754120,573.367737 481.783813,573.394775 462.139404,573.367615 
	C460.639801,573.365540 459.104645,573.574341 457.646881,573.326782 
	C452.107941,572.386108 448.273346,574.823914 445.228027,579.191711 
	C447.043884,581.483521 449.483063,581.710266 452.043701,581.704102 
	C458.375275,581.688782 464.764435,581.182068 471.025146,581.853943 
	C480.410828,582.861206 487.874084,580.490845 493.514954,572.595398 
	C495.619751,569.649353 498.600006,567.334106 501.143982,564.695435 
	C506.698395,558.934326 507.910797,551.129761 504.415161,543.863037 
	C510.019348,539.558472 510.129974,539.096741 506.657867,533.003601 
	C506.057709,531.950317 505.745605,530.979919 505.949951,529.715881 
	C507.526947,519.961121 506.390869,510.125305 506.760406,500.332825 
	C506.873352,497.340088 505.618164,496.102631 502.638885,496.171387 
	C499.143799,496.252106 495.641754,496.137360 492.145844,496.017303 
	C490.963013,495.976715 489.700409,495.647522 489.671570,494.124847 
	C489.642609,492.597626 490.920593,492.173309 492.078979,492.136444 
	C496.406555,491.998657 500.738586,492.002838 505.068848,491.947418 
	C507.587708,491.915192 510.033356,491.765015 512.104980,489.963867 
	C513.402344,488.835968 515.100098,486.669250 516.689514,488.556244 
	C518.534180,490.746246 515.826721,492.318909 514.424194,493.219452 
	C510.812744,495.538391 510.178894,498.688416 510.289154,502.620911 
	C510.503845,510.279449 510.392059,517.948669 510.325623,525.612671 
	C510.303101,528.208862 510.762329,530.551636 512.503784,532.573425 
	C513.656494,533.911621 514.317566,536.119263 516.635986,535.512207 
	C519.320984,534.809082 518.611450,532.369568 518.658020,530.489258 
	C518.752991,526.659424 518.734436,522.824402 518.658386,518.993530 
	C518.610168,516.564697 519.120300,514.358093 520.683594,512.469727 
	C523.051208,509.609863 523.658264,506.286896 523.654785,502.664673 
	C523.643860,491.335388 523.618042,480.002350 523.889343,468.677734 
	C524.112183,459.375458 529.135620,454.704315 538.406860,454.699188 
	C552.903076,454.691193 567.400208,454.642853 581.894775,454.806305 
	C585.388794,454.845703 587.293518,453.776459 587.409668,450.152313 
	C587.617432,443.665985 588.163574,437.168732 586.728210,430.741882 
	C584.802979,422.121155 576.823486,415.722534 568.778992,416.378815 
	C567.114746,416.514557 565.305420,416.699677 564.514282,418.436493 
	C563.745483,420.124176 564.331726,421.665863 565.688599,422.936462 
	C566.291199,423.500793 566.864197,424.130798 567.311768,424.821014 
	C569.413086,428.061890 569.319824,431.244324 566.299194,433.757843 
	C563.539856,436.053802 560.325378,436.065277 557.646057,433.622009 
	C554.816101,431.041351 554.604187,427.905029 556.696594,424.600189 
	C557.450500,423.409424 559.425781,422.828949 559.010254,420.603851 
	C554.330994,424.332977 552.411865,429.377655 552.270874,437.763092 
	C552.133423,445.940216 552.035461,446.032562 543.691772,445.913879 
	C542.858887,445.902039 542.025391,445.890137 541.192749,445.904907 
	C537.861938,445.964020 536.380127,444.500854 536.555847,441.018707 
	C536.669739,438.760895 537.489685,436.201111 535.478088,433.940918 
	C531.841125,442.753265 534.177429,446.695648 542.729065,446.760895 
	C543.728760,446.768524 544.729675,446.740204 545.727783,446.782318 
	C547.108704,446.840637 548.557129,447.031647 548.651550,448.780426 
	C548.740234,450.421356 547.529846,450.951019 546.082947,451.258423 
	C535.134155,453.584534 530.104004,449.568817 529.940674,438.317535 
	C529.935852,437.984436 529.930237,437.650360 529.948608,437.318054 
	C530.095032,434.666992 528.993042,433.451294 526.193909,433.252991 
	C521.795532,432.941376 517.937500,433.519257 515.148804,437.382202 
	C512.505859,441.043396 507.414093,443.000092 507.374237,448.465759 
	C507.336548,453.630707 507.417999,458.796753 507.348694,463.961029 
	C507.321228,466.009644 507.846008,467.208954 510.008057,468.073120 
	C512.796204,469.187653 515.759521,470.653992 515.742737,474.368378 
	C514.412048,475.496735 513.162659,475.411438 512.276855,474.600891 
	C508.431122,471.081970 503.732330,471.341125 499.060089,471.385620 
	C496.727692,471.407837 494.395508,471.458984 492.063080,471.471588 
	C491.050201,471.477051 489.986725,471.426483 489.555115,470.285797 
	C489.121246,469.139160 489.724365,468.280304 490.723755,467.888519 
	C492.972504,467.006989 492.792480,465.110413 492.809509,463.287109 
	C492.846863,459.288391 493.347412,455.216522 492.772705,451.304688 
	C491.290741,441.217438 494.985901,433.760925 502.664246,427.352325 
	C508.375519,422.585510 507.978821,421.841522 501.020325,416.521759 
	C497.448944,420.232544 493.892761,424.142151 490.099792,427.806671 
	C486.519440,431.265808 485.168304,435.175171 485.188293,440.246704 
	C485.325012,474.902740 485.184235,509.560028 485.087433,544.216736 
	C485.059845,554.094971 480.918854,558.232117 471.098419,558.259216 
	C458.435242,558.294250 445.771454,558.292480 433.108643,558.206360 
	C423.633362,558.141846 419.072144,553.595703 418.866638,544.041504 
	C418.752045,538.712402 418.850708,533.378235 418.886841,528.046509 
	C419.132904,491.730316 419.361206,455.413971 419.661377,419.098206 
	C419.725037,411.397919 423.568451,406.861053 430.471771,406.785767 
	C444.632080,406.631378 458.800385,406.623566 472.956818,406.940094 
	C480.795715,407.115387 484.963135,411.877106 485.323730,419.787659 
	C485.403198,421.531067 484.744354,423.452057 486.358490,425.230988 
	C490.297455,422.882385 492.785187,419.066498 495.994751,416.037781 
	C497.971130,414.172729 497.886169,412.443237 496.066864,410.462250 
	C491.899323,405.924164 487.841370,401.285522 483.734467,396.691650 
	C482.185852,394.959412 480.238098,394.283752 477.926758,394.345306 
	C474.929565,394.425110 471.916656,394.542664 468.932709,394.330902 
	C465.217407,394.067139 462.456055,394.765381 460.052429,398.208160 
	C457.335114,402.100281 452.135620,401.922943 448.570526,398.652863 
	C445.176331,395.539612 444.797852,390.332397 447.717896,386.922913 
	C450.481689,383.695862 456.421295,382.610626 458.794861,386.057343 
	C462.657501,391.666473 467.827179,391.115662 472.938324,390.594818 
	C480.468964,389.827484 485.752106,392.375732 490.559326,398.286530 
	C495.272003,404.080994 500.155945,409.988464 506.467804,414.687561 
	C509.604126,403.656158 501.761780,395.346252 493.119446,390.928986 
	C490.303772,389.489868 488.902435,387.406647 488.487061,384.343018 
	C488.243713,382.548126 489.136383,380.675049 488.067139,378.935150 
	C486.412323,377.820892 484.525604,378.243713 482.734253,378.226227 
	C473.237335,378.133575 463.682770,378.737030 454.257141,377.888672 
	C442.791901,376.856720 433.411835,379.418823 426.406281,389.049347 
	C424.769257,391.299744 422.471710,392.762054 422.769775,396.217560 
	C423.009094,398.992340 421.138184,401.687927 418.345520,402.219452 
	C413.382416,403.164124 413.256042,406.352264 413.266541,410.301086 
	C413.344452,439.626526 413.315277,468.952271 413.257690,498.277832 
	C413.251617,501.362701 413.610840,504.013458 415.914246,506.482758 
	C418.674927,509.442352 418.536438,512.953979 415.575043,515.853760 
	C412.695648,518.673218 409.383789,518.682678 405.977234,516.603882 
	C404.901001,515.947083 404.476501,514.367249 402.270508,514.405762 
	C402.270508,518.540710 402.450317,522.660339 402.230225,526.758545 
	C401.860229,533.647522 403.067719,540.179321 407.203186,545.711548 
	C414.754700,555.813599 425.146759,562.786255 434.742462,570.690979 
	C439.781067,564.030029 444.302551,562.362610 447.595947,566.342712 
	C450.323151,569.638550 453.312164,569.740295 456.823059,569.708984 
	C462.487793,569.658447 468.153809,569.741455 473.818115,569.672546 
	C475.287354,569.654724 477.278076,569.822571 478.136047,568.987488 
	C485.026917,562.280762 495.415863,557.775269 493.673279,544.415283 
M498.379211,350.910217 
	C498.763306,354.335754 497.037170,356.843262 495.115295,359.488739 
	C489.763885,366.854919 483.263824,371.162811 473.653748,369.504608 
	C470.418152,368.946320 467.002869,369.412109 463.669952,369.438660 
	C457.294769,369.489441 450.742004,371.538818 444.711487,367.616913 
	C444.183472,367.273590 443.088501,367.644196 442.309875,367.867737 
	C430.948944,371.129852 419.601898,374.440216 408.239563,377.697418 
	C405.492126,378.485046 404.151093,380.024994 404.106873,383.056519 
	C403.987854,391.215057 403.480255,399.368011 403.365906,407.526520 
	C402.989929,434.349304 403.627380,461.181732 402.465820,487.999451 
	C402.155701,495.159393 402.418915,502.344208 402.418915,510.145050 
	C403.277679,508.621643 403.548981,507.390625 404.292175,506.942993 
	C409.318176,503.915649 408.937805,499.098938 408.966888,494.224854 
	C409.049347,480.397430 409.414642,466.571655 409.492859,452.744232 
	C409.599884,433.821045 409.579559,414.896851 409.532990,395.973297 
	C409.522491,391.708160 411.681091,388.683960 416.042755,388.869659 
	C419.893585,389.033600 422.281555,387.356720 424.658325,384.870056 
	C427.305420,382.100555 430.129150,379.500854 432.825562,376.777252 
	C434.813812,374.769043 437.174927,373.769135 439.988739,373.783295 
	C455.320221,373.860413 470.671448,373.520233 485.971710,374.249786 
	C490.839661,374.481873 496.825256,373.275177 500.720764,377.125793 
	C506.551514,382.889404 512.870605,388.691223 511.185760,398.479370 
	C510.353607,403.313660 513.643494,406.232666 517.714600,408.986481 
	C518.395447,397.765503 518.804138,387.140594 518.007324,376.507355 
	C517.721558,372.693756 515.950928,370.615540 511.734283,371.704956 
	C510.239258,372.091217 508.551453,372.817596 507.216309,371.132874 
	C512.987122,366.598999 513.124634,365.643799 508.145935,359.952118 
	C506.629883,358.219025 506.796356,356.356995 506.662750,354.370148 
	C506.448578,351.185516 507.566711,347.822540 505.506256,344.295319 
	C502.924835,346.300018 499.065430,346.043884 498.379211,350.910217 
M528.549133,553.967834 
	C525.802490,557.333862 521.939209,559.670288 522.020752,565.120056 
	C522.302368,583.932861 522.067261,602.753235 522.085999,621.570679 
	C522.087524,623.115906 521.445374,624.945190 523.285278,626.154785 
	C527.903931,624.497253 529.992371,621.539917 529.751404,616.353943 
	C529.372986,608.211792 530.123901,600.004333 529.524414,591.889038 
	C528.979675,584.514832 531.250244,579.033386 537.088806,574.652344 
	C539.896301,572.545715 542.135620,570.000427 541.473206,565.809387 
	C541.093018,563.403992 542.619812,561.328308 544.904053,560.174133 
	C547.503967,558.860596 550.124939,558.844849 552.344177,560.884155 
	C554.381287,562.756226 555.795959,565.116028 554.902954,568.000671 
	C553.934204,571.130371 551.710022,572.909790 548.334717,573.266968 
	C543.428101,573.786194 533.704285,581.456665 533.567139,585.695923 
	C533.214050,596.611938 533.449036,607.547058 533.449036,619.347839 
	C537.925720,616.261658 543.712036,615.066162 542.798584,608.913513 
	C540.952576,596.479126 545.977905,587.405457 555.320740,579.989258 
	C556.484192,579.065674 557.396179,577.831055 558.466370,576.783142 
	C560.098755,575.184753 560.923279,573.297791 560.905945,570.985046 
	C560.864685,565.490234 560.803406,559.992920 560.927856,554.500610 
	C561.000671,551.285522 559.643250,550.019043 556.470093,550.070618 
	C550.143921,550.173401 543.811096,550.210022 537.488037,550.028503 
	C534.074585,549.930542 531.277405,550.826721 528.549133,553.967834 
M612.078552,410.538269 
	C612.167175,395.332703 609.361023,392.473175 594.154480,392.371429 
	C585.823425,392.315674 577.491882,392.303528 569.160583,392.299225 
	C562.790100,392.295929 561.767151,393.720490 563.550232,400.197083 
	C564.157471,400.225891 564.812744,400.311249 565.462402,400.279938 
	C583.823242,399.396057 597.587219,409.557526 601.594116,427.256561 
	C603.077209,433.807739 601.760071,440.562164 602.309387,447.184509 
	C602.585327,450.511108 599.667969,455.739777 606.882996,455.861877 
	C614.368225,455.988464 611.813049,450.496857 611.901062,447.014038 
	C612.199585,435.190887 612.045166,423.356354 612.078552,410.538269 
M457.822235,500.318481 
	C455.795135,499.095123 455.714935,497.104706 455.717102,495.058746 
	C455.722778,489.731262 455.735077,484.403473 455.681061,479.076416 
	C455.654114,476.420288 455.960175,473.164612 452.001678,473.349640 
	C448.328674,473.521301 448.392914,476.627838 448.378052,479.349762 
	C448.352631,484.010437 448.197327,488.678772 448.408813,493.329681 
	C448.566254,496.792847 447.478790,499.130585 444.624023,501.325348 
	C439.290802,505.425598 438.120361,511.790894 442.328613,516.696411 
	C445.870056,520.824646 446.468842,525.126282 446.255524,530.048035 
	C446.125885,533.038025 446.195587,536.042542 446.307953,539.035583 
	C446.433289,542.374695 448.341675,544.471069 451.586975,544.506226 
	C454.683777,544.539734 456.424927,542.334412 456.597992,539.329407 
	C456.817902,535.511902 456.849579,531.670166 456.704041,527.848633 
	C456.552551,523.870667 457.409729,520.592590 460.170929,517.376953 
	C465.027893,511.720612 464.181366,506.150055 457.822235,500.318481 
M459.993195,590.528015 
	C473.575653,600.759949 487.030792,611.175598 502.698059,620.918701 
	C501.920593,613.202759 504.763763,606.540039 499.160034,600.855103 
	C493.925720,595.544922 492.487579,588.446655 490.746765,581.778381 
	C480.350067,590.661011 467.128235,583.118286 455.113098,586.810913 
	C456.829102,588.119446 458.133820,589.114380 459.993195,590.528015 
M506.274841,607.760071 
	C506.269806,610.751709 506.257324,613.743286 506.261230,616.734924 
	C506.271179,624.329712 509.283813,627.915222 517.438538,629.817383 
	C517.438538,608.980347 517.438538,588.202209 517.438538,567.424133 
	C517.045044,567.165649 516.651550,566.907166 516.258057,566.648682 
	C513.849976,569.334961 511.559113,572.139893 508.997223,574.670410 
	C506.897186,576.744812 506.073792,578.587402 507.282837,581.662598 
	C509.035614,586.120911 507.231384,589.667114 502.890442,591.908630 
	C501.752380,592.496277 500.238068,592.514099 499.622528,594.312378 
	C500.906036,598.814331 507.223816,600.969849 506.274841,607.760071 
M558.418335,358.144745 
	C551.048340,355.142914 550.211487,355.708069 550.169373,363.800659 
	C550.139099,369.622864 550.062012,375.446838 550.172363,381.266907 
	C550.227722,384.183746 549.007629,387.820709 554.305298,387.951202 
	C559.462830,388.078278 558.734314,384.723541 558.820618,381.611572 
	C558.857483,380.281799 558.910645,378.952057 558.984070,377.623840 
	C559.168274,374.291016 560.615112,372.507141 564.279053,372.546692 
	C568.594116,372.593292 572.912354,372.143951 577.232300,372.001068 
	C579.899658,371.912811 582.172913,371.380310 583.024536,367.929474 
	C575.060059,364.762146 567.093933,361.594147 558.418335,358.144745 
M572.734253,574.882019 
	C572.731567,567.895325 572.680359,560.908203 572.750183,553.922241 
	C572.778137,551.125793 571.532837,550.079346 568.808838,550.139465 
	C566.325928,550.194275 565.089050,551.183594 565.153748,553.717957 
	C565.196167,555.380066 564.926575,557.081238 565.188171,558.701721 
	C567.100220,570.546021 563.671997,580.144653 553.707825,587.235046 
	C545.952026,592.754089 546.727722,600.669189 547.723450,609.075989 
	C552.019470,607.347534 555.304565,605.466858 554.714172,600.431152 
	C554.395935,597.717590 555.581238,595.646667 557.413269,593.760254 
	C561.468201,589.584778 565.449890,585.338074 569.460938,581.119873 
	C570.939819,579.564636 572.719116,578.189453 572.734253,574.882019 
M534.302551,383.784851 
	C535.558716,389.016327 539.769470,387.880585 543.218994,387.596771 
	C546.993103,387.286194 545.855164,383.945282 545.959778,381.677277 
	C546.358643,373.037109 546.574890,364.388580 546.920349,355.745636 
	C546.960754,354.735291 547.324036,353.671265 546.270630,353.059143 
	C542.653564,350.957214 539.267090,348.301300 534.243652,347.275269 
	C534.243652,359.676056 534.243652,371.295685 534.302551,383.784851 
M572.112549,481.520172 
	C571.042175,484.258514 571.495483,487.085815 573.300964,489.028778 
	C576.787598,492.781067 576.328552,496.661255 575.098206,501.031311 
	C573.090332,508.163513 573.721863,508.880432 580.849243,508.935425 
	C586.932861,508.982361 587.033997,508.856598 585.824341,502.756866 
	C585.470215,500.970917 584.987671,499.198486 584.796265,497.395203 
	C584.541809,494.997192 584.114807,492.797333 586.304443,490.558624 
	C590.683350,486.081604 590.345459,480.266388 586.103333,477.128571 
	C581.410217,473.657196 575.952820,475.122772 572.112549,481.520172 
M525.940979,521.630920 
	C524.827942,520.462463 524.875549,518.484375 522.942566,517.483459 
	C521.675842,522.195374 522.497742,526.844177 522.260498,531.421936 
	C522.095154,534.613525 523.589600,535.932739 526.735474,535.913879 
	C536.734741,535.853882 546.734680,535.877686 556.734192,535.908875 
	C559.251038,535.916687 560.852173,535.202576 560.937134,532.272644 
	C561.025269,529.232544 559.667175,528.070312 556.767212,528.080811 
	C551.434753,528.100098 546.101440,528.032654 540.769287,527.950317 
	C535.246521,527.864990 530.226196,526.468079 525.940979,521.630920 
M512.173157,434.761902 
	C513.275635,433.552887 514.787537,432.647400 515.209900,430.269104 
	C513.370911,429.087830 511.834442,425.017883 509.274109,427.038269 
	C504.543671,430.771118 498.493622,434.536804 497.540710,440.778198 
	C496.346497,448.600281 497.123932,456.726715 497.101959,464.721924 
	C497.097229,466.443024 497.943909,467.531036 499.825897,467.612244 
	C501.936005,467.703247 502.918610,466.625671 502.964874,464.630829 
	C503.042145,461.299835 503.376892,457.933075 503.028595,454.642181 
	C502.158691,446.423615 505.057800,440.047272 512.173157,434.761902 
M522.234680,407.340607 
	C522.216309,416.075439 523.621948,418.395660 530.658813,418.983551 
	C530.658813,410.162170 530.346558,401.420502 530.763672,392.713776 
	C531.063904,386.445831 527.543396,383.184631 522.225281,379.248322 
	C522.225281,388.967316 522.225281,397.675018 522.234680,407.340607 
M534.189392,403.526886 
	C534.179688,407.829529 534.171875,412.132202 534.159790,416.434845 
	C534.151184,419.492218 535.972168,420.059479 538.461731,419.469818 
	C539.875244,419.135040 546.761597,408.993805 546.462769,407.492493 
	C545.709534,403.708008 545.977295,399.903534 545.963501,396.107941 
	C545.953796,393.438171 544.851135,391.985840 542.127136,392.184937 
	C539.701538,392.362183 537.269531,391.217468 534.191650,392.377747 
	C534.191650,395.677002 534.191650,399.110718 534.189392,403.526886 
M530.370361,373.989716 
	C529.553101,365.686829 530.387878,357.388580 530.730103,349.111877 
	C530.969482,343.323456 527.745789,341.323273 523.334717,339.738861 
	C521.804504,341.349670 522.376038,343.104828 522.357666,344.680115 
	C522.268372,352.319824 522.556702,359.973480 522.190918,367.597229 
	C521.915894,373.329468 525.365479,376.055267 529.666138,379.276459 
	C529.934631,377.325562 530.112183,376.035370 530.370361,373.989716 
M479.111389,365.716370 
	C485.240082,365.449036 493.566650,357.370758 494.236084,349.973602 
	C479.300568,356.965790 463.938019,361.191376 448.793030,366.065063 
	C458.626709,365.372131 468.417999,365.923553 479.111389,365.716370 
M542.499695,540.195923 
	C537.184448,540.205688 531.868774,540.260376 526.554138,540.207031 
	C523.708374,540.178467 522.175171,541.269043 522.269836,544.301208 
	C522.355957,547.058472 522.288025,549.820557 522.288025,552.472534 
	C524.304565,552.835876 525.021179,551.713257 525.701660,550.906372 
	C529.366577,546.560852 534.056885,545.464661 539.530701,545.744629 
	C545.494507,546.049622 551.486206,545.818909 557.465759,545.800720 
	C559.319580,545.795105 560.749329,545.251587 560.750000,543.005798 
	C560.750671,540.740845 559.301025,540.256653 557.450745,540.247681 
	C552.799988,540.225037 548.149170,540.213562 542.499695,540.195923 
M503.699493,574.414246 
	C505.962128,571.975708 507.855469,568.974854 510.555115,567.201599 
	C519.456238,561.354797 519.167236,552.679810 518.527893,543.760620 
	C518.430786,542.405212 518.203308,541.036438 516.640320,540.571838 
	C515.099609,540.113831 514.266846,541.222656 513.250854,542.122437 
	C510.466705,544.588013 509.721497,547.763794 510.264160,551.171448 
	C511.438568,558.546265 508.372314,563.992126 503.038086,568.649719 
	C500.857300,570.553833 498.945648,572.766174 496.567596,575.188599 
	C499.440521,575.953918 501.357208,576.120422 503.699493,574.414246 
M469.632812,441.073822 
	C472.474487,445.829926 472.579071,451.626831 474.904541,457.548523 
	C478.909363,448.909271 471.127686,433.048737 460.282379,425.457428 
	C451.707794,419.455536 441.721130,417.025543 437.837799,420.874512 
	C451.623932,422.617096 462.336945,428.651520 469.632812,441.073822 
M510.513214,354.545197 
	C512.722534,358.206482 517.703613,359.952820 517.830017,365.232452 
	C518.829102,355.968750 518.999329,346.861542 518.240112,337.339020 
	C513.184204,338.558258 510.031433,340.507385 510.352875,345.763641 
	C510.514679,348.409607 510.410522,351.071838 510.513214,354.545197 
M453.995422,433.449890 
	C449.271912,430.422333 444.267303,428.531799 438.261444,429.873230 
	C443.684601,433.661163 450.469330,434.617523 455.474060,439.287384 
	C460.685944,444.150543 461.222198,451.339874 465.457703,456.562500 
	C466.142090,446.880219 462.276733,439.446045 453.995422,433.449890 
M557.727051,392.746887 
	C549.878845,391.453827 547.923218,394.912872 550.962402,404.711639 
	C558.817200,402.472412 559.539795,401.350494 557.727051,392.746887 
M448.841461,447.638214 
	C451.497955,449.966766 451.789978,454.127930 455.855011,456.757294 
	C455.549713,450.142609 453.091370,445.739807 448.460449,442.680756 
	C445.292114,440.587799 441.829773,438.777771 436.486145,440.453400 
	C440.565247,444.091492 445.557556,443.766357 448.841461,447.638214 
M511.087555,412.550323 
	C510.714050,417.813232 510.915894,422.798706 516.972595,425.159698 
	C519.488098,417.733185 518.829346,415.366821 513.398560,411.189667 
	C512.164246,410.240234 511.385071,409.989288 511.087555,412.550323 
M444.196899,453.404602 
	C440.892120,450.803253 438.232666,451.078491 437.340088,454.153290 
	C436.902466,455.660767 437.078064,457.130066 438.333405,458.225159 
	C439.513763,459.254852 440.847656,459.729767 442.414398,458.997345 
	C444.615601,457.968353 444.977722,456.198853 444.196899,453.404602 
M524.024292,422.473938 
	C520.549561,423.230103 522.220764,426.359741 520.957397,428.222443 
	C522.798279,429.339661 524.506409,429.049866 526.129883,429.151550 
	C527.595276,429.243317 529.309021,429.587524 529.722534,427.489197 
	C530.093933,425.604523 529.403259,424.239563 527.444214,423.667236 
	C526.488159,423.387909 525.551331,423.043030 524.024292,422.473938 
M502.552734,392.876099 
	C503.780365,393.844971 504.421509,395.663574 506.519318,395.613647 
	C507.126404,394.149628 507.135132,392.659546 506.785339,391.219238 
	C506.350525,389.428925 505.653076,387.262787 503.348511,387.955017 
	C501.387909,388.543915 500.724609,390.379761 502.552734,392.876099 
M412.485016,511.204651 
	C412.368927,509.039551 411.245544,508.067780 409.214264,508.931580 
	C407.889923,509.494751 407.070862,510.752289 408.225616,512.163818 
	C409.657532,513.914185 411.071014,513.492310 412.485016,511.204651 
M534.196411,427.028961 
	C534.337769,427.974243 534.329163,429.337677 535.732300,428.885132 
	C537.356506,428.361237 537.503967,426.703796 537.564331,425.214996 
	C537.602600,424.273254 537.045959,423.584106 536.129456,423.572998 
	C534.238647,423.549988 534.289368,425.036285 534.196411,427.028961 
M408.408539,590.496887 
	C406.300781,591.013489 405.713959,592.399292 406.608917,594.226807 
	C407.247467,595.530640 408.515442,595.557434 409.524811,594.607849 
	C411.088806,593.136658 410.931396,591.726440 408.408539,590.496887 
M494.805115,510.665192 
	C496.812988,510.634521 497.915833,509.800720 497.199707,507.675232 
	C496.933716,506.885681 496.077728,506.328644 495.260742,506.671143 
	C493.452698,507.429138 492.825592,508.682007 494.805115,510.665192 
z"/>
<path fill="#000000" opacity="1.000000" stroke="none" 
	d="
M678.479736,528.487122 
	C680.577637,522.267944 679.527222,515.517395 683.511658,509.644409 
	C685.972473,512.127319 685.406555,514.342285 685.045105,516.365906 
	C675.069580,572.218445 645.273376,614.438660 596.671265,643.237854 
	C567.963196,660.248840 536.474182,667.731506 503.266418,664.992859 
	C453.022614,660.849365 412.118835,638.367615 380.732788,598.889587 
	C362.355804,575.774658 350.500946,549.606262 345.256592,520.505737 
	C344.609131,516.913025 344.170776,513.278381 343.763916,509.648773 
	C343.617767,508.344788 343.644623,506.713287 345.414429,506.512054 
	C347.129364,506.317017 347.634125,507.862030 347.856384,509.156128 
	C348.699524,514.064941 349.044250,519.087280 350.233521,523.904663 
	C366.842834,591.183838 406.971649,637.233643 474.457336,655.687683 
	C528.343933,670.423035 577.431580,657.248535 620.245850,621.853516 
	C649.781921,597.435730 668.540710,565.844238 678.479736,528.487122 
z"/>
<path fill="#000000" opacity="1.000000" stroke="none" 
	d="
M354.662994,467.167969 
	C352.179443,467.287933 351.195129,469.108643 349.649872,470.016541 
	C346.226288,472.028107 342.863190,472.033264 340.231079,468.833893 
	C337.903809,466.005157 338.195343,462.760162 340.622345,460.181580 
	C343.441406,457.186493 347.183228,456.934601 349.942169,459.839966 
	C352.633698,462.674286 355.578491,462.881348 358.959564,462.838715 
	C364.787170,462.765167 370.616852,462.789734 376.444794,462.852081 
	C377.866119,462.867279 379.826569,462.636353 379.881226,464.747253 
	C379.933655,466.772339 377.993347,466.923889 376.572723,466.951447 
	C369.414551,467.090332 362.253662,467.090302 354.662994,467.167969 
z"/>
<path fill="#000000" opacity="1.000000" stroke="none" 
	d="
M654.679321,472.018036 
	C660.411011,471.863220 665.721436,471.808289 671.032043,471.785156 
	C675.143494,471.767242 679.066833,472.023071 682.636292,468.793304 
	C685.156860,466.512604 688.719971,467.157532 691.146362,469.848907 
	C693.195312,472.121552 693.834351,474.934326 691.886841,477.608490 
	C689.731079,480.568787 685.961609,481.689880 683.539429,479.567139 
	C675.628906,472.634644 666.486389,476.259369 657.856873,475.629761 
	C656.243652,475.512085 654.438843,476.201508 653.313232,474.529266 
	C652.611633,473.487000 653.304321,472.684082 654.679321,472.018036 
z"/>
<path fill="#000000" opacity="1.000000" stroke="none" 
	d="
M657.600342,495.623474 
	C661.850159,495.651184 665.663269,495.631165 669.474426,495.708496 
	C672.818115,495.776337 675.752991,495.679901 678.360657,492.659515 
	C680.889832,489.730011 684.498962,490.378571 687.216431,492.980042 
	C689.823730,495.476135 690.070557,498.657166 687.917053,501.548096 
	C685.605469,504.651245 681.689575,505.705536 679.241028,503.054413 
	C675.043579,498.509705 670.123108,499.369385 665.133667,499.316254 
	C662.481873,499.287994 659.821960,499.438507 657.180054,499.275330 
	C655.382935,499.164368 652.358398,500.136505 652.370850,497.389282 
	C652.383972,494.491669 655.437378,496.021881 657.600342,495.623474 
z"/>
<path fill="#000000" opacity="1.000000" stroke="none" 
	d="
M373.943298,443.463257 
	C376.181641,444.215332 379.739502,442.616791 379.664612,445.468292 
	C379.582703,448.587769 376.030548,447.301605 374.005463,447.312012 
	C369.906708,447.333130 357.203735,432.830383 357.443512,428.733643 
	C357.593445,426.171875 358.836731,424.313660 361.170715,423.310059 
	C363.675476,422.233032 366.082611,422.595367 368.126343,424.409668 
	C370.341339,426.376038 371.308899,429.285889 369.966278,431.632477 
	C366.815826,437.138672 369.862610,440.233673 373.943298,443.463257 
z"/>
<path fill="#000000" opacity="1.000000" stroke="none" 
	d="
M660.390747,450.503052 
	C662.340576,448.493195 662.434326,446.679688 661.559692,444.356781 
	C660.271729,440.936096 661.431458,438.060211 664.890015,436.622986 
	C668.528748,435.110901 671.422852,436.379974 673.266052,439.782593 
	C675.152466,443.265198 673.780701,446.400970 670.701904,447.780365 
	C666.960022,449.456757 664.675232,452.247070 662.357056,455.251068 
	C660.457703,457.712250 657.925720,458.626953 654.876160,458.184265 
	C653.822083,458.031250 652.914917,457.605164 652.744934,456.451843 
	C652.566223,455.239258 653.401123,454.588348 654.418518,454.344574 
	C656.747009,453.786774 658.844482,452.925049 660.390747,450.503052 
z"/>
<path fill="#000000" opacity="1.000000" stroke="none" 
	d="
M655.115906,512.086426 
	C658.482605,512.341675 659.980286,514.618408 661.626526,516.687561 
	C663.869568,519.506897 665.759460,522.515015 669.044617,524.520996 
	C671.740173,526.166870 672.955139,529.195251 671.146301,532.321960 
	C669.354919,535.418274 666.488770,536.549866 663.067932,535.179993 
	C659.630371,533.803406 658.780457,530.555359 659.949158,527.735291 
	C662.463745,521.668152 658.657715,518.840454 654.745728,516.040466 
	C652.530396,514.454834 650.799377,513.420471 655.115906,512.086426 
z"/>
<path fill="#000000" opacity="1.000000" stroke="none" 
	d="
M363.098206,501.483429 
	C360.410156,504.004089 358.133118,506.416626 355.756775,508.727051 
	C354.851959,509.606781 353.644135,509.821442 352.603912,508.885010 
	C351.678192,508.051575 352.123962,507.148071 352.639832,506.213867 
	C357.069946,498.190857 371.354279,493.737152 379.524200,497.886169 
	C379.738586,497.995026 379.775421,498.453400 380.182739,499.458923 
	C374.853058,502.416168 368.891388,500.158539 363.098206,501.483429 
z"/>
<path fill="#000000" opacity="1.000000" stroke="none" 
	d="
M371.083954,453.687866 
	C374.321655,454.119049 377.445862,452.728088 379.805420,454.939941 
	C379.822052,456.906403 378.657196,457.159729 377.466125,457.210571 
	C375.311005,457.302612 373.070892,456.923401 371.007385,457.379456 
	C361.900208,459.392365 357.427765,453.394226 353.002991,447.256836 
	C352.256989,446.222076 351.148376,444.931274 352.404297,443.708832 
	C353.979889,442.175140 355.110352,443.748901 356.132568,444.734253 
	C357.083221,445.650513 358.043732,446.641785 358.686523,447.777405 
	C361.348663,452.480804 365.204620,454.614136 371.083954,453.687866 
z"/>
<path fill="#000000" opacity="1.000000" stroke="none" 
	d="
M669.893433,466.675964 
	C664.745789,467.759552 659.911499,467.171631 655.098145,467.294586 
	C653.890320,467.325439 652.623596,467.000153 652.510376,465.532501 
	C652.371033,463.725067 653.792358,463.386536 655.180054,463.309418 
	C656.167664,463.254517 657.174011,463.371765 658.160889,463.498840 
	C663.901428,464.237823 669.110840,463.659943 672.512573,458.105591 
	C673.016907,457.282043 673.884949,456.657104 674.655701,456.027069 
	C675.572449,455.277679 676.695984,454.481262 677.782410,455.423218 
	C679.069458,456.539093 678.520874,457.872101 677.528809,458.925049 
	C675.134460,461.466522 672.679565,463.950958 669.893433,466.675964 
z"/>
<path fill="#000000" opacity="1.000000" stroke="none" 
	d="
M672.388184,513.820435 
	C668.429993,507.822021 663.001770,506.473206 656.595825,507.195099 
	C654.956421,507.379822 652.258118,507.776001 652.213318,505.276611 
	C652.163635,502.512970 654.804626,503.530853 656.458130,503.493378 
	C658.449097,503.448303 660.443542,503.569122 662.436707,503.609222 
	C668.858032,503.738434 674.080627,507.709961 676.610779,514.406311 
	C675.157471,515.877747 673.919922,514.885315 672.388184,513.820435 
z"/>
<path fill="#000000" opacity="1.000000" stroke="none" 
	d="
M661.069580,488.177094 
	C657.905090,487.538391 652.926941,489.678375 652.939697,486.217194 
	C652.955200,482.012909 657.937744,484.378265 660.721680,483.958923 
	C663.153076,483.592682 665.689087,483.848083 668.174561,483.941437 
	C669.615723,483.995575 671.613831,483.835968 671.686768,485.806335 
	C671.772400,488.117065 669.598206,488.006409 668.007812,488.106323 
	C665.858704,488.241302 663.696167,488.164490 661.069580,488.177094 
z"/>
<path fill="#000000" opacity="1.000000" stroke="none" 
	d="
M375.709534,479.332611 
	C369.264130,479.163483 363.212494,479.827332 356.541321,478.727142 
	C359.750153,475.220856 374.673859,474.678711 379.707184,477.020660 
	C379.698120,479.565765 377.709412,479.108307 375.709534,479.332611 
z"/>
<path fill="#000000" opacity="1.000000" stroke="none" 
	d="
M508.272339,489.019958 
	C503.207123,489.127319 498.565063,489.058411 493.929474,489.200806 
	C490.262970,489.313416 488.801941,487.577698 488.969574,484.076965 
	C489.056702,482.258026 488.985840,480.431641 489.069824,478.612427 
	C489.179932,476.227844 490.501617,474.833160 492.872070,474.979462 
	C499.664886,475.398712 506.750885,472.993378 513.174927,477.442322 
	C514.615967,478.440338 517.038574,477.977325 518.991455,478.296143 
	C520.207153,478.494659 521.192383,479.135223 521.275391,480.531158 
	C521.343445,481.674530 520.560120,482.863983 519.683228,482.710785 
	C514.225769,481.757416 512.337708,486.856873 508.272339,489.019958 
z"/>
</svg>